PathFileType	4	(X/Y/Z)	/Users/itak/Documents/Research/Walk-IL/dataset/trc/00530_00183.trc
DataRate	CameraRate	NumFrames	NumMarkers	Units	OrigDataRate	OrigDataStartFrame	OrigNumFrames
100.000000	100.000000	4	53	mm	100.000000	228	457
Frame#	Time	RPSI			LPSI			L3			STRN			T10			C7			CLAV			RBAK			LBAK			LSHO			LUPA			LAEL			LAOL			LWTS			LFRA			LIFD			LHPS			LHTS			RSHO			RUPA			RAEL			RAOL			RWTS			RWPS			RFRA			RIFD			RHTS			RHPS			RBHD			LFHD			RFHD			LBHD			LHIP			RASI			LASI			LKNE			LTHI			LANK			LTIP			LTOE			LMT1			LMT5			LHEE			RKNE			RTHI			RANK			RTIP			RTOE			RMT1			RMT5			RHEE			LWPS			RHIP			
		X1	Y1	Z1	X2	Y2	Z2	X3	Y3	Z3	X4	Y4	Z4	X5	Y5	Z5	X6	Y6	Z6	X7	Y7	Z7	X8	Y8	Z8	X9	Y9	Z9	X10	Y10	Z10	X11	Y11	Z11	X12	Y12	Z12	X13	Y13	Z13	X14	Y14	Z14	X15	Y15	Z15	X16	Y16	Z16	X17	Y17	Z17	X18	Y18	Z18	X19	Y19	Z19	X20	Y20	Z20	X21	Y21	Z21	X22	Y22	Z22	X23	Y23	Z23	X24	Y24	Z24	X25	Y25	Z25	X26	Y26	Z26	X27	Y27	Z27	X28	Y28	Z28	X29	Y29	Z29	X30	Y30	Z30	X31	Y31	Z31	X32	Y32	Z32	X33	Y33	Z33	X34	Y34	Z34	X35	Y35	Z35	X36	Y36	Z36	X37	Y37	Z37	X38	Y38	Z38	X39	Y39	Z39	X40	Y40	Z40	X41	Y41	Z41	X42	Y42	Z42	X43	Y43	Z43	X44	Y44	Z44	X45	Y45	Z45	X46	Y46	Z46	X47	Y47	Z47	X48	Y48	Z48	X49	Y49	Z49	X50	Y50	Z50	X51	Y51	Z51	X52	Y52	Z52	X53	Y53	Z53	

229	2.28	-378.7572631835938	942.7764892578125	-17.19924736022949	-310.2145385742188	952.607421875	-120.5229187011719	-341.7951965332031	1027.361206054688	-63.87288284301758	-141.7031555175781	1184.042114257812	42.97410583496094	-351.4065246582031	1132.34228515625	-57.24578094482422	-312.9869079589844	1360.654541015625	-25.74008560180664	-173.2095947265625	1279.554931640625	31.49408912658691	-392.7068481445312	1236.648193359375	27.78223419189453	-300.9999389648438	1310.952026367188	-118.0896606445312	-183.9002227783203	1356.194946289062	-145.1186981201172	-177.9551391601562	1233.1171875	-212.9004058837891	-174.4963989257812	1024.067260742188	-245.7449645996094	-266.1878662109375	1019.693603515625	-207.3330383300781	-127.4105606079102	823.5293579101562	-192.2473907470703	-166.3770599365234	937.5902099609375	-247.4272613525391	-149.2861328125	668.350830078125	-190.4521179199219	-173.3118896484375	742.97119140625	-250.6942443847656	-120.8675765991211	745.7327880859375	-211.3738250732422	-322.2468872070312	1347.812744140625	131.9673309326172	-360.245849609375	1278.50146484375	175.0549621582031	-366.0828857421875	1009.87744140625	212.9939880371094	-396.5596923828125	994.6458129882812	155.8526916503906	-263.7457580566406	809.0859375	230.0732421875	-353.2301025390625	786.7803955078125	232.4638977050781	-364.5173645019531	955.6375122070312	220.4454193115234	-264.7385864257812	648.6144409179688	231.2362060546875	-263.6560974121094	715.061279296875	256.9389953613281	-332.7400512695312	712.9977416992188	241.9260711669922	-310.4323120117188	1512.419799804688	68.169189453125	-142.9978179931641	1577.932983398438	-19.61827087402344	-192.1860198974609	1576.782470703125	97.74782562255859	-262.1484680175781	1508.5693359375	-83.51838684082031	-143.3383178710938	890.05029296875	-169.6336975097656	-238.1863403320312	890.3416137695312	144.224853515625	-110.7339553833008	921.488525390625	-58.74721908569336	-94.48499298095703	475.7526245117188	-57.14581680297852	-93.51994323730469	629.954833984375	-103.1192245483398	-166.9743804931641	48.09302139282227	-66.249755859375	-104.8619003295898	319.9097595214844	-60.86006546020508	-24.46297645568848	35.37257766723633	85.35065460205078	-107.610725402832	40.62170791625977	73.14284515380859	-68.26409912109375	43.36849212646484	-20.36016464233398	-236.8494567871094	44.35871505737305	-32.92874908447266	-289.8544921875	456.3940124511719	138.1089172363281	-321.4059753417969	710.8746337890625	155.6407775878906	-579.7662353515625	202.0960693359375	-43.31961059570312	-346.23779296875	341.8450012207031	96.28785705566406	-456.1029663085938	55.80802917480469	-15.97156047821045	-469.4197692871094	100.6291961669922	-70.32162475585938	-537.418701171875	108.9554748535156	0.9035905599594116	-582.7399291992188	240.0196380615234	-102.1476135253906	-186.6247711181641	800.3241577148438	-261.8718566894531	-355.2351379394531	837.3936157226562	141.0591735839844	
230	2.29	-370.5957946777344	943.8910522460938	-13.34992408752441	-301.8816223144531	953.9183349609375	-116.5121231079102	-333.4556579589844	1028.882202148438	-60.52291488647461	-133.227294921875	1185.419921875	47.425537109375	-342.7542419433594	1133.981567382812	-53.83323287963867	-304.0990905761719	1362.178466796875	-21.86109161376953	-164.6973724365234	1280.930908203125	35.90540313720703	-384.1905212402344	1238.270385742188	31.12491035461426	-291.7801208496094	1312.572875976562	-114.2636413574219	-174.5175628662109	1357.73193359375	-140.6473846435547	-167.7980651855469	1234.764282226562	-208.4906158447266	-163.2077484130859	1025.627563476562	-240.9134979248047	-255.6363525390625	1021.245300292969	-204.2912292480469	-118.1433181762695	824.8653564453125	-186.2136840820312	-155.050048828125	939.1749877929688	-242.5466766357422	-139.4255828857422	669.7977294921875	-186.1825866699219	-161.3988800048828	744.662353515625	-246.8486785888672	-110.7739028930664	747.1556396484375	-205.7182312011719	-314.1232604980469	1349.261474609375	135.7813873291016	-352.5436706542969	1279.999633789062	178.4921875	-360.1310729980469	1011.358032226562	215.6722412109375	-390.21728515625	996.6038818359375	158.1831665039062	-260.2324829101562	808.9609375	232.0739135742188	-350.0868835449219	787.9010620117188	233.9249572753906	-359.0821838378906	957.1099853515625	222.9207153320312	-263.7853088378906	648.4596557617188	231.92578125	-261.6946105957031	714.69482421875	258.131591796875	-330.9185485839844	713.8938598632812	243.0028991699219	-301.5838012695312	1513.7548828125	72.47959899902344	-133.8833465576172	1579.33544921875	-14.78679847717285	-183.4194488525391	1578.03662109375	102.4835891723633	-252.8754272460938	1510.076416015625	-79.07621765136719	-135.2637176513672	891.0581665039062	-165.8014984130859	-229.6534271240234	892.5728149414062	148.1025695800781	-102.1717910766602	922.7704467773438	-55.00712585449219	-91.41097259521484	475.3466186523438	-56.38434982299805	-88.14068603515625	630.0721435546875	-100.8220748901367	-166.9854125976562	48.06834411621094	-66.28599548339844	-103.2240142822266	319.57080078125	-60.53036117553711	-24.55539131164551	35.45201873779297	85.22845458984375	-107.5562133789062	40.65701675415039	73.02201843261719	-68.23545074462891	43.29855346679688	-20.4641056060791	-236.8741302490234	44.36699295043945	-32.97580718994141	-272.9172058105469	459.2743530273438	147.0114440917969	-311.57861328125	713.0692749023438	160.8854370117188	-559.3886108398438	202.664794921875	-33.35237884521484	-328.1801452636719	345.5722351074219	106.6201095581055	-435.0453796386719	57.50993728637695	-1.414772033691406	-447.9443664550781	101.2708129882812	-56.93093109130859	-516.8108520507812	111.0849533081055	13.57050323486328	-561.924560546875	239.1756591796875	-93.19467163085938	-174.4246063232422	802.0235595703125	-258.0680541992188	-346.5526428222656	839.1514892578125	145.2298278808594	
231	2.3	-362.4479675292969	945.17138671875	-9.342353820800781	-293.63671875	955.1857299804688	-112.3916854858398	-325.1996765136719	1030.36376953125	-57.06592559814453	-124.8607711791992	1186.824096679688	51.80949401855469	-334.2533569335938	1135.567504882812	-50.37318420410156	-295.4030456542969	1363.664428710938	-17.98164749145508	-156.3326263427734	1282.33203125	40.2689323425293	-375.8064880371094	1239.864379882812	34.52717208862305	-282.7435607910156	1314.150390625	-110.4238891601562	-165.3669128417969	1359.303588867188	-136.1905364990234	-157.7328796386719	1236.47509765625	-204.1032562255859	-151.8060302734375	1027.26611328125	-235.9700469970703	-244.9963989257812	1022.789367675781	-201.3151397705078	-108.9529190063477	826.1587524414062	-180.1504364013672	-143.5710754394531	940.8609008789062	-237.6259918212891	-129.6474914550781	671.19091796875	-182.469970703125	-149.2697601318359	746.5409545898438	-243.2859497070312	-100.7170562744141	748.5888671875	-200.1755523681641	-306.1166381835938	1350.720581054688	139.5797271728516	-344.98046875	1281.548095703125	181.9380950927734	-354.4755249023438	1012.906982421875	218.2550201416016	-384.154541015625	998.6292724609375	160.4161071777344	-256.7220764160156	809.1054077148438	234.0685882568359	-346.883544921875	789.1202392578125	235.4316864013672	-353.9153137207031	958.650390625	225.3086700439453	-262.4696655273438	648.61279296875	232.7761383056641	-259.5415954589844	714.6511840820312	259.4255981445312	-328.8306274414062	714.93798828125	244.1569213867188	-292.8042907714844	1515.153930664062	76.83129119873047	-124.7540130615234	1580.601684570312	-9.879751205444336	-174.6307373046875	1579.171508789062	107.3004837036133	-243.6782379150391	1511.664794921875	-74.58640289306641	-127.3335037231445	891.9403076171875	-161.9980621337891	-221.0238952636719	894.8463134765625	151.9148559570312	-93.62316131591797	924.0263061523438	-51.35330581665039	-88.36289978027344	474.9427795410156	-55.48062133789062	-82.79994964599609	630.1546020507812	-98.40683746337891	-167.00634765625	48.07081604003906	-66.29146575927734	-101.5708694458008	319.2297058105469	-59.99333953857422	-24.64076042175293	35.51579666137695	85.12383270263672	-107.5214996337891	40.67240524291992	72.93192291259766	-68.21842956542969	43.25028228759766	-20.53864479064941	-236.9020080566406	44.38791275024414	-33.01689529418945	-256.1929016113281	462.4617919921875	155.5829010009766	-301.7041320800781	715.4266967773438	166.3124389648438	-538.3623046875	201.7688903808594	-22.8664665222168	-310.1239013671875	349.3031311035156	116.8692474365234	-412.5222778320312	58.70377349853516	13.38093090057373	-425.2584838867188	101.2210235595703	-43.26548385620117	-494.9500122070312	112.007080078125	26.53997993469238	-540.70166015625	236.8279113769531	-83.72003936767578	-161.8831024169922	803.9117431640625	-254.4078216552734	-337.8138732910156	841.096923828125	149.6129760742188	
232	2.31	-354.3059692382812	946.5402221679688	-5.191510677337646	-285.4468078613281	956.3948974609375	-108.1556777954102	-316.9812927246094	1031.778076171875	-53.4739875793457	-116.5879745483398	1188.225463867188	56.12649917602539	-325.8630981445312	1137.058959960938	-46.83979797363281	-286.8761291503906	1365.0849609375	-14.10588359832764	-148.0896606445312	1283.733764648438	44.58316802978516	-367.5397644042969	1241.396728515625	37.98614120483398	-273.8690490722656	1315.650756835938	-106.5696716308594	-156.4288482666016	1360.880004882812	-131.7554626464844	-147.7734832763672	1238.214599609375	-199.7489166259766	-140.3586273193359	1028.958129882812	-230.9613952636719	-234.3113403320312	1024.302124023438	-198.3888092041016	-99.81312561035156	827.3980102539062	-174.1163177490234	-132.0030975341797	942.6156005859375	-232.7021789550781	-119.9584350585938	672.5188598632812	-179.2735748291016	-136.9564361572266	748.5770874023438	-239.9660034179688	-90.68672180175781	750.014404296875	-194.7519378662109	-298.2112731933594	1352.151977539062	143.3634643554688	-337.5366516113281	1283.104614257812	185.3921356201172	-349.0849304199219	1014.485900878906	220.7490234375	-378.3417053222656	1000.677062988281	162.5623779296875	-253.2107696533203	809.4765014648438	236.09716796875	-343.6146240234375	790.3849487304688	236.9754333496094	-348.9916381835938	960.219482421875	227.6119995117188	-260.7615051269531	649.015869140625	233.8014678955078	-257.1831359863281	714.8744506835938	260.8445739746094	-326.471435546875	716.0612182617188	245.3804168701172	-284.0966796875	1516.589111328125	81.22600555419922	-115.6229858398438	1581.711791992188	-4.895170211791992	-165.8201446533203	1580.160522460938	112.1944885253906	-234.5635986328125	1513.322021484375	-70.05030059814453	-119.5020599365234	892.7066040039062	-158.2003936767578	-212.3122406005859	897.0836181640625	155.6843414306641	-85.079833984375	925.2090454101562	-47.74938201904297	-85.33934783935547	474.5230102539062	-54.48183822631836	-77.53585815429688	630.17333984375	-95.90804290771484	-167.0394287109375	48.0973014831543	-66.26593017578125	-99.9354248046875	318.8783569335938	-59.33744430541992	-24.71231842041016	35.56349945068359	85.03379821777344	-107.5063400268555	40.66878890991211	72.87313842773438	-68.21317291259766	43.21813583374023	-20.58520317077637	-236.9340057373047	44.42206954956055	-33.05393218994141	-239.671142578125	465.8509826660156	163.9082183837891	-291.6928100585938	717.8955688476562	171.9385070800781	-516.7526245117188	199.4990539550781	-11.88569736480713	-292.016845703125	352.87646484375	126.9986343383789	-388.7219848632812	59.3834114074707	28.4997501373291	-401.4718017578125	100.5033721923828	-29.23452377319336	-472.0122680664062	111.8210296630859	39.84965896606445	-519.0863037109375	233.0436401367188	-73.74517822265625	-149.0645599365234	805.9619140625	-250.8620147705078	-329.0352172851562	843.1427612304688	154.1955718994141	
